<svg xmlns="http://www.w3.org/2000/svg" viewBox="0 0 332.1 309.6" style="enable-background:new 0 0 332.1 309.6;">
<style type="text/css">
	.st0{fill:#E6E6E6;}
	.st1{fill:#CCCCCC;}
	.st2{fill:#A0616A;}
	.st3{fill:#3F3D56;}
	.st4{fill:#2F2E41;}
	.st5{opacity:0.1;enable-background:new;}
	.st6{fill:#FFFFFF;}
	.st7{fill:#E74F9A;}
</style>
<g>
	<path class="st0" d="M78,31.2V5.4c0-3,2.4-5.4,5.4-5.4h16.8c3,0,5.4,2.4,5.4,5.4v25.8c0,3-2.4,5.4-5.4,5.4H83.4
		C80.5,36.7,78,34.2,78,31.2z"/>
	<path class="st1" d="M41.3,31.2V5.4c0-3,2.4-5.4,5.4-5.4h16.8c3,0,5.4,2.4,5.4,5.4v25.8c0,3-2.4,5.4-5.4,5.4H46.7
		C43.7,36.7,41.3,34.2,41.3,31.2z"/>
	<path class="st0" d="M2.1,31.2V5.4c0-3,2.4-5.4,5.4-5.4h16.8c3,0,5.4,2.4,5.4,5.4v25.8c0,3-2.4,5.4-5.4,5.4H7.5
		C4.6,36.7,2.1,34.2,2.1,31.2z"/>
	<path id="uuid-4d2d9b01-4014-4a15-9fb7-c70aeb2aff54-392" class="st2" d="M191.2,120.5c1.2,1.2,2.1,2.6,2.6,4.2l12.9,11.6l-5.7,6
		l-12.5-12.4c-1.6-0.5-3-1.4-4.1-2.6c-2.9-3-3.7-6.9-1.9-8.7C184.4,116.6,188.3,117.5,191.2,120.5L191.2,120.5z"/>
	<path class="st3" d="M231.2,110.2c0,0,12.3-3.9,16,5.2s-17,38.6-28.7,41.8c-11.7,3.3-28.8-25.3-28.8-25.3l7.5-4l20.9,11.3
		L231.2,110.2L231.2,110.2z"/>
	<path class="st3" d="M331.4,304.1H0.7c-0.4,0-0.7,0.3-0.7,0.7c0,0.4,0.3,0.7,0.7,0.7h330.7c0.4,0,0.7-0.3,0.7-0.7
		S331.8,304.1,331.4,304.1z"/>
	<path class="st3" d="M129.9,130l-0.5-1.4c-34.1,0-63.9-27.9-71.8-66.7l12.9,3.3C64.3,59.3,58,49.5,54.1,41.4
		c-2.3,8.7-6.6,19.5-11.6,26.5l12.2-5.8C62.7,102.5,94.3,130,129.9,130z"/>
	<g>
		<polygon class="st2" points="236.9,267 222.8,267 227.3,303.8 236.9,303.8 		"/>
		<path class="st4" d="M204.2,303.6L204.2,303.6c0.7-1.3,2-1,3.5-1.2l6.6-0.8l11.9-8.7l1.6,3c5.6,5.6,9.3,2,9.3,2
			c3,4.6,1.5,8.3,1.5,8.3v1.2c0,1.2-1,2.2-2.2,2.2h-29.6c-1.8,0-3.2-1.5-3.2-3.2l0,0C203.7,305.7,203.9,304.1,204.2,303.6
			L204.2,303.6L204.2,303.6z"/>
	</g>
	<polygon class="st2" points="246,104.8 237.4,94.3 229.5,99.2 229.7,112.1 	"/>
	<polygon class="st5" points="234.6,109.8 237.4,94.3 229.2,99.5 229.7,112.1 	"/>
	<circle class="st2" cx="229.6" cy="89.1" r="14.1"/>
	<path class="st4" d="M210.5,194.2l0.2-6.5l0.4-11.6c0,0,13.9-0.6,23.6,0.4c1.7,0.2,3.3,0.4,4.6,0.7c2.2,0.4,3.8,1.1,4.5,1.9
		c1.7,2.2,0.6,6.9-0.9,10.8c-1.3,3.4-2.8,6.3-2.8,6.3l-3.3,12.8l1.2,26.9l2.2,51.1h-16.5l-13.2-89.5L210.5,194.2z"/>
	<g>
		<polygon class="st2" points="248.4,263 234.4,265 244.3,300.8 253.7,299.4 		"/>
		<path class="st4" d="M221.3,303.9L221.3,303.9c0.6-1.3,1.9-1.3,3.3-1.7l6.4-1.8l10.5-10.4l2.1,2.7c6.3,4.7,9.5,0.6,9.5,0.6
			c3.6,4.1,2.7,7.9,2.7,7.9l0.2,1.2c0.2,1.2-0.7,2.3-1.9,2.5l-29.2,4.5c-1.8,0.3-3.4-1-3.7-2.7l0,0
			C221.2,306.1,221.1,304.5,221.3,303.9L221.3,303.9L221.3,303.9z"/>
	</g>
	<path class="st4" d="M210.2,182.3l2.4-6c6.1-1.1,19.8-3.2,26.4-2.4c1.6,0.2,2.8,0.5,3.4,1.1c0.3,0.3,0.6,0.7,0.8,1.1
		c1.5,3.1,0.1,9.3-0.9,13.1c-0.5,1.9-1,3.2-1,3.2l-1.5,13.1l14.7,76.6l-16.3,2.4L222,230.6l-9.8-32.7L210.2,182.3L210.2,182.3z"/>
	<path class="st3" d="M244.2,102.1l10.3,15.1c0,0-6.7,49.1-5.8,51.6c1,2.6-5.4,7.7-5.4,7.7s8.9,11.5,0.4,14.7
		c-3.1,1.1-30.9-11.5-35.3-13.8c-4.5-2.3,3.8-4.8,0.9-7.6s1.9-4.5,1.9-7.1s17-52.9,17-52.9L244.2,102.1L244.2,102.1z"/>
	<path class="st4" d="M230.5,92.5c4-4.4,9.2,5.4,9.2,5.4h5c0,0-0.7-9.8,1.1-13.4c1.8-3.6-3.2-2.5-6.9-8.4
		c-3.6-5.8-11.3-1.5-10.2-2.9c1.1-1.5-6.5,2.2-6.5,1.1s-1.8,2.2-1.8,1.1s-2.5,2.9-2.2,1.8c0.4-1.1-2.2,2.5-2.2,2.5s0.7-2.2-2.2,2.2
		c-2.9,4.4-1.8,5.1,0.7,6.2s6.2-3.6,6.2-3.6s0.4,2.2,3.3,3.6c2.9,1.5,4.7,8,4.7,8L230.5,92.5L230.5,92.5z"/>
	<path class="st6" d="M63.4,12c1.2,0,1-1.8-0.1-1.8L46.8,9.7c-1.2,0-1,1.8,0.1,1.8L63.4,12L63.4,12z"/>
	<path class="st6" d="M63.4,18.1c1.2,0,1-1.8-0.1-1.8l-16.5-0.5c-1.2,0-1,1.8,0.1,1.8L63.4,18.1L63.4,18.1z"/>
	<path class="st6" d="M63.4,24.1c1.2,0,1-1.8-0.1-1.8l-16.5-0.5c-1.2,0-1,1.8,0.1,1.8L63.4,24.1L63.4,24.1z"/>
	<path class="st6" d="M100.5,13.6L100.5,13.6c0.7,0.9,2-0.4,1.3-1.3c-2.6-3.1-6.9-1.7-10-0.6c-1.8,0.6-3.9,1.3-5.7,0.5
		c-1.5-0.7-2.5-2.1-2.8-3.7c-0.2-1.1-1.9-0.7-1.7,0.5c0.3,1.7,1.3,3.2,2.7,4.3c1.6,1.1,3.5,1.3,5.4,1
		C92.8,13.6,97.8,10.2,100.5,13.6L100.5,13.6z"/>
	<path class="st6" d="M100.5,20.8L100.5,20.8c0.7,0.9,2-0.4,1.3-1.3c-2.6-3.1-6.9-1.7-10-0.6c-1.8,0.6-3.9,1.3-5.7,0.5
		c-1.5-0.7-2.5-2.1-2.8-3.7c-0.2-1.1-1.9-0.7-1.7,0.5c0.3,1.7,1.3,3.2,2.7,4.3c1.6,1.1,3.5,1.3,5.4,1
		C92.8,20.8,97.8,17.5,100.5,20.8L100.5,20.8z"/>
	<path class="st7" d="M143.5,164.6v-59.3c0-2.8,2.2-5,5-5h41.6c2.8,0,5,2.2,5,5v59.3c0,2.8-2.2,5-5,5h-41.6
		C145.8,169.6,143.5,167.4,143.5,164.6z"/>
	<path class="st6" d="M23.1,7.7L23.1,7.7c0.1-1.2-1.7-1.3-1.8-0.2c-0.9,7.5-1.1,15.1-0.8,22.7c0.1,1.2,1.8,0.9,1.8-0.3
		C21.9,22.5,22.2,15.1,23.1,7.7L23.1,7.7z"/>
	<path class="st6" d="M17.1,7.7L17.1,7.7c0.1-1.2-1.7-1.3-1.8-0.2c-0.9,7.5-1.1,15.1-0.8,22.7c0.1,1.2,1.8,0.9,1.8-0.3
		C15.9,22.5,16.2,15.1,17.1,7.7L17.1,7.7z"/>
	<path class="st6" d="M11,7.7L11,7.7c0.1-1.2-1.7-1.3-1.8-0.2C8.3,15,8.1,22.6,8.4,30.2c0.1,1.2,1.8,0.9,1.8-0.3
		C9.9,22.5,10.2,15.1,11,7.7L11,7.7z"/>
	<g>
		<path id="uuid-264cfc9b-ec7b-45c7-b901-d09aac5ec40c-393" class="st2" d="M195.4,146.5c1.6,0.4,3.1,1.3,4.3,2.4l16.9,3.9l-2.1,8
			l-16.9-4.8c-1.6,0.3-3.3,0.2-4.9-0.3c-4-1.2-6.6-4.2-5.9-6.7C187.5,146.4,191.4,145.3,195.4,146.5L195.4,146.5z"/>
		<path class="st3" d="M225.3,118.2c0,0,8.8-9.4,16.5-3.3s3.8,42-4.8,50.5c-8.6,8.5-37.5-8.2-37.5-8.2l4.6-7.1l23.8-0.3L225.3,118.2
			L225.3,118.2z"/>
	</g>
	<path class="st6" d="M185.7,122.9c2.3,0.1,2.1-3.5-0.2-3.5l-32.5-1c-2.3-0.1-2.1,3.5,0.2,3.5L185.7,122.9L185.7,122.9z"/>
	<path class="st6" d="M185.7,134.7c2.3,0.1,2.1-3.5-0.2-3.5l-32.5-1c-2.3-0.1-2.1,3.5,0.2,3.5L185.7,134.7L185.7,134.7z"/>
	<path class="st6" d="M185.7,146.5c2.3,0.1,2.1-3.5-0.2-3.5l-32.5-1c-2.3-0.1-2.1,3.5,0.2,3.5L185.7,146.5L185.7,146.5z"/>
</g>
</svg>
