<svg xmlns="http://www.w3.org/2000/svg" viewBox="0 0 596.9 505.6" style="enable-background:new 0 0 596.9 505.6;">
<style type="text/css">
	.st0{fill:#D7D7D7;}
	.st1{fill:#3F3D56;}
	.st2{fill:#FFFFFF;}
	.st3{fill:#FFB6B6;}
	.st4{fill:#E74F9A;}
	.st5{fill:#2F2E41;}
	.st6{fill:#E6E6E6;}
</style>
<g>
	<path class="st0" d="M575.4,413.7H21.5C9.6,413.7,0,404.1,0,392.2v-66.7h596.9v66.7C596.9,404.1,587.3,413.7,575.4,413.7z"/>
	<rect x="228.9" y="402.5" class="st0" width="141.3" height="100.9"/>
	<rect x="220.4" y="490.7" class="st0" width="158.3" height="12.7"/>
	<path class="st1" d="M596.4,353.7H0V14.7C0,6.6,6.6,0,14.7,0h566.9c8.1,0,14.7,6.6,14.7,14.7L596.4,353.7L596.4,353.7z"/>
	<rect x="13.8" y="15.4" class="st2" width="568.2" height="319.7"/>
	<g>
		<path id="uuid-25324785-d0f2-4f1c-ad19-f4bb5410ff47-390" class="st3" d="M123.9,205.9c4.3-3.6,9.7-4.3,12-1.5
			c2.3,2.8,0.6,7.9-3.7,11.5c-1.7,1.5-3.8,2.5-6,3l-18.6,15l-6.8-8.9l19.1-13.8C120.7,209.2,122.1,207.4,123.9,205.9z"/>
		<path class="st4" d="M16.2,239.8c0-0.7,0-6.4,4.3-10.1c4.9-4.2,11.9-2.5,14.3-1.9c5.6,1.4,6.1,3.8,11.4,6.3
			c9.9,4.6-2.5,2.3,3.4,0.8c2-0.5,31.3-2.5,38.6-7c14.2-8.7,23.8-14,23.8-14l6.3,12.6c0,0-9.1,12.7-22,22.1
			c-13.2,9.6-19.8,14.5-29.8,16.3c-0.9,0.2-22.1,3.8-39.2-9C23.5,252.9,16.3,247.6,16.2,239.8L16.2,239.8z"/>
		<circle class="st3" cx="35.8" cy="185.7" r="22"/>
		<g>
			<polygon class="st3" points="208.1,333.4 185.4,310.2 173.7,322.4 190.6,344.7 207.3,346.6 			"/>
			<path class="st5" d="M78.7,290c1.3,0.1,5.5,1,9.6-1.3c2.7-1.5,4.2-3.8,4.6-4.5c5.9-8.9,28.6-22.7,48.9-23.5
				c4.6-0.2,7.6,0.3,10.4,1.8c3.9,2,5.5,5,10.4,11.8c2.7,3.7,5.7,7.3,8.5,11c16.1,21.7,22.2,23.4,21.5,30.4
				c-0.7,7.7-9,15.1-14.6,14.2c-2.3-0.3-3.1-1.9-6.2-5.1c-8.9-9.4-12.6-7.6-18.9-14.8c-7.4-8.4-6.4-15.3-10.3-15.6
				c-3.6-0.2-5.1,5.7-12.7,13.5c-3.5,3.6-6,5.3-13.6,10.5c-29.5,20.5-30,21.9-35.9,23.5c-2.6,0.7-21.1,5.8-27.7-2.3
				C42.4,327,66.8,289,78.7,290L78.7,290z"/>
			<path class="st5" d="M201.1,338.7c1.7-0.7,3.6-1.6,4.2-3.6c0.4-1.4,0.2-3-0.7-4.2c-1-1.3-2.5-1.5-2.4-1.8
				c0.1-0.4,3.6-0.2,7.5,1.2c0.7,0.3,4.1,1.5,8.3,4.8c3.4,2.6,2.9,3.2,5.1,4.7c6.5,4.7,12.6,1,16.2,5.4c1.4,1.7,1.9,4.1,1.4,6
				c-1.2,3.9-6.7,5.2-9.8,5.9c-7.4,1.7-12.9,0.3-18.8-0.7c-19.8-3.3-30.9-0.3-32.4-4.9c-0.3-0.9,0.2-0.8,1.7-7.2
				c1.5-6.3,1.5-8,2.7-8.5c1.9-0.8,3.2,2.7,8.1,3.9C196.5,340.8,200.1,339.2,201.1,338.7L201.1,338.7z"/>
		</g>
		<g>
			<polygon class="st3" points="167.8,409.3 162.1,377.4 145.5,380.9 147,408.8 159.8,419.8 			"/>
			<path class="st5" d="M85.2,300.7c1,0.8,4,3.9,8.6,4.3c3.1,0.3,5.5-0.8,6.3-1.1c9.9-4,36.4-2.7,53.7,8c3.9,2.4,6.1,4.6,7.6,7.3
				c2.1,3.9,1.7,7.2,2,15.6c0.1,4.6,0.7,9.2,0.8,13.8c1.1,27,5.2,31.8,0.7,37.3c-4.9,6-15.9,7.4-20,3.6c-1.7-1.6-1.5-3.4-2.2-7.7
				c-2.1-12.7-6.1-13.4-7.3-22.9c-1.4-11.1,3.3-16.3,0.2-18.7c-2.8-2.2-7.4,1.8-18.1,4.1c-4.9,1-7.9,1-17.1,1.1
				c-35.9,0.4-37.1,1.3-43-0.7c-2.6-0.9-20.7-7.1-21.6-17.4C34.3,311,75.9,293.2,85.2,300.7L85.2,300.7z"/>
			<path class="st5" d="M159.1,409.7c1.8,0.3,3.9,0.7,5.5-0.6c1.1-0.9,1.9-2.4,1.8-3.9c-0.1-1.7-1.2-2.7-1-2.8
				c0.3-0.2,3.1,1.9,5.6,5.2c0.5,0.6,2.5,3.5,4.2,8.6c1.3,4.1,0.6,4.3,1.5,6.7c2.8,7.5,9.9,7.9,10.3,13.5c0.2,2.2-0.7,4.5-2.3,5.8
				c-3.1,2.6-8.5,0.6-11.4-0.6c-7-2.8-10.9-7-15.1-11.1c-14.5-13.9-25.4-17.6-24.1-22.2c0.3-0.9,0.6-0.6,5.4-5
				c4.8-4.4,5.7-5.8,7-5.5c2,0.5,1.2,4,4.5,7.7C154.1,408.8,158,409.5,159.1,409.7L159.1,409.7z"/>
		</g>
		<path class="st5" d="M38.8,189.9c0.9-3.1-0.2-4.2,0.9-5.6c0,0,0.4-0.6,4.4-2l0,0c-1.2-6.8-0.3-7.9-0.3-7.9c1-1.3,3-1.6,4.4-1.5
			c2.9,0.4,3.4,3,5.3,2.9c2.6-0.1,5.6-5.2,4.7-9.6c-0.8-3.6-4.1-6.3-5-5.8c-0.8,0.5-3.8-1.6-5-1.2c-0.8,0.3-4.4-0.1-5.3,0.3
			c-0.9,0.4-3.5,3-3.7,2.7c-1.7-2.3-1.7-3.1-2.7-3.6c-1.8-0.9-3.7,0.7-7,2.3c-6.8,3.3-8.8,1.3-12,4.1c-1.6,1.4-2.4,4.1-4.1,9.4
			c-2.3,7.4-3.4,11.1-2.3,14.6c1.1,3.6,2.8,2.8,5.3,7.9c2.7,5.7,1.8,8.9,4.4,10.2c2,1,5.2,0.4,6.4-1.5c2.1-3.1-3.3-7.4-1.5-12.3
			c1.1-3,4.6-5.3,6.7-4.7c2.4,0.7,2.6,5,4.1,5C37.8,193.6,38.7,190.4,38.8,189.9L38.8,189.9z"/>
		<path class="st4" d="M22.2,210.9c4.5-5,22.8,0.2,24.6,8.2c0.7,3.3-1.9,4.7-1.2,8.5c1.1,5.5,7.2,5.2,11.7,10.8
			c6.4,8-0.2,15.9,7,29.2c1.5,2.9,2.8,5.3,5.6,7.6c6.2,5.4,12,3.5,15.2,8.5c2.4,3.7,1.4,8.3,1.2,9.4c-0.9,4.4-3.5,5.5-5.3,9.1
			c-3,6,0.4,10.4,0.6,17.5c0.2,9-4.5,21.4-14,25.4c-10.7,4.6-23.6-3-29.8-10.5c-3.7-4.5-4.8-8.6-6.4-13.7
			c-7.3-22.8-11.4-20.8-17-38.9c-6.4-20.7-7.6-44.9,0-52.6c1-1,3.8-3.4,5.6-7.6C22.2,216,20.1,213.2,22.2,210.9L22.2,210.9z"/>
		<g>
			<path id="uuid-91308677-eda7-42a2-9f2e-a07e84038198-391" class="st3" d="M88.7,328.4c3.5,4.4,4,9.8,1.2,12
				c-2.8,2.2-7.9,0.4-11.4-4c-1.4-1.8-2.4-3.8-2.9-6l-14.5-19l7.5-5.7l14.9,18.5C85.5,325.2,87.3,326.6,88.7,328.4z"/>
			<path class="st4" d="M35.4,230.2c0.6-0.1,6.3-1.3,10.8,2.1c5.1,4,4.9,11.1,4.8,13.6c-0.2,5.8-2.5,6.7-3.8,12.4
				c-2.5,10.6,2.3,20.5,4.9,25.9c0.9,1.9,3.9,7.7,9.8,13.9c11.4,12.1,21.6,18.5,21.6,18.5l-11,9.7c0,0-17.5-5.3-29.3-16
				c-12.1-10.9-30.8-49.6-34.7-59c-0.3-0.8,4.4,12.4,13.4-6.9C24,239.9,27.7,231.9,35.4,230.2L35.4,230.2z"/>
		</g>
	</g>
	<g>
		<path class="st1" d="M315.8,221.1l-13.1-6.2c5.4,7.5,10,19.2,12.5,28.5c4.2-8.7,10.9-19.3,17.6-25.6l-13.8,3.6
			c8.5-41.8,40.6-71.7,77.3-71.7l0.5-1.5C358.5,148.1,324.5,177.6,315.8,221.1z"/>
		<path class="st4" d="M376.1,284.7h-82.7c-3.5,0-6.4-2.9-6.4-6.4s2.9-6.4,6.4-6.4h82.7c3.5,0,6.4,2.9,6.4,6.4
			S379.6,284.7,376.1,284.7L376.1,284.7z"/>
		<path class="st6" d="M486.1,284.7h-82.7c-3.5,0-6.4-2.9-6.4-6.4s2.9-6.4,6.4-6.4h82.7c3.5,0,6.4,2.9,6.4,6.4
			S489.6,284.7,486.1,284.7L486.1,284.7z"/>
	</g>
	<g>
		<path class="st1" d="M437.1,111.7h-80.4c-2,0-3.7-1.6-3.7-3.7s1.6-3.7,3.7-3.7h80.4c2,0,3.7,1.6,3.7,3.7S439.1,111.7,437.1,111.7z
			"/>
		<path class="st1" d="M480.2,150.9H313.6c-2,0-3.7-1.6-3.7-3.7s1.6-3.7,3.7-3.7h166.6c2,0,3.7,1.6,3.7,3.7
			C483.9,149.3,482.3,150.9,480.2,150.9z"/>
	</g>
	<path class="st1" d="M36.1,504.4c0,0.7,0.5,1.2,1.2,1.2h522.3c0.7,0,1.2-0.5,1.2-1.2c0-0.7-0.5-1.2-1.2-1.2H37.3
		C36.7,503.2,36.1,503.7,36.1,504.4z"/>
	<path class="st1" d="M164.4,222.3c-0.1,0-0.3,0-0.4,0c-8.4-0.5-37-4.6-54.1-34.1c-1.4-2.4-1.1-5.5,0.7-7.7l31.7-37.7
		c1.3-1.5,3.3-2.4,5.3-2.4c1.4,0,4.7,0.4,5.4,2.9c3.8,15.1,19.9,32.8,39.2,35.2c2,0.2,3.5,2,4.2,4.7c0.5,2.1,0,4.2-1.3,5.9
		l-25.4,30.8C168.3,221.4,166.4,222.3,164.4,222.3L164.4,222.3z M147.4,141.8c-1.5,0-3.1,0.7-4,1.9l-31.7,37.7
		c-1.4,1.7-1.6,4.1-0.5,6c16.7,28.9,44.7,32.9,52.9,33.4c1.7,0.1,3.3-0.6,4.3-1.9l25.4-30.8c1.1-1.3,1.4-3,1-4.6
		c-0.4-1.6-1.4-3.3-2.9-3.5c-20-2.4-36.5-20.8-40.5-36.3C151.1,142.4,149.2,141.9,147.4,141.8C147.5,141.8,147.4,141.8,147.4,141.8
		L147.4,141.8z"/>
	<path class="st6" d="M129,189.4l22.8-23.3c1.6-1.6-0.9-4-2.4-2.4l-22.8,23.3C125,188.5,127.5,191,129,189.4L129,189.4z"/>
	<path class="st6" d="M142.8,195.9c6.3-5.6,11.8-12.2,16.3-19.4c1.2-1.9-1.8-3.6-3-1.7c-4.3,6.9-9.6,13.2-15.7,18.7
		C138.7,195,141.2,197.4,142.8,195.9L142.8,195.9L142.8,195.9z"/>
	<path class="st6" d="M155.2,203.8c5.7-6.4,10.6-13.4,14.5-21.1c1-2-2-3.7-3-1.7c-3.7,7.4-8.4,14.3-13.9,20.4
		C151.3,203,153.7,205.4,155.2,203.8L155.2,203.8z"/>
	<g>
		<ellipse class="st4" cx="145.4" cy="139.4" rx="23" ry="22.5"/>
		<path class="st2" d="M157.4,150c-3.5-8.7-7.1-17.4-10.6-26.1c-0.5-1.2-2-1.2-2.5,0c-3.5,9.1-5.8,18.6-6.9,28.3
			c-0.2,1.7,2.4,1.6,2.6,0c0.4-3.8,1.1-7.6,1.9-11.3c2.9,0.2,5.9-0.2,8.7-1c1.5,3.6,2.9,7.1,4.4,10.7
			C155.5,152.3,158,151.6,157.4,150z M142.5,138.4c0.9-3.6,1.9-7.1,3.1-10.6l4,9.8C147.3,138.2,144.9,138.5,142.5,138.4z"/>
	</g>
</g>
</svg>
