<svg xmlns="http://www.w3.org/2000/svg" viewBox="0 0 820.3 645.8" style="enable-background:new 0 0 820.3 645.8;">
<style type="text/css">
	.st0{fill:#3F3D56;}
	.st1{fill:#FFFFFF;}
	.st2{fill:#E6E6E6;}
	.st3{fill:#E74F9A;}
	.st4{fill:#FFB6B6;}
	.st5{fill:#D7D7D7;}
	.st6{fill:#2F2E41;}
	.st7{opacity:0.1;enable-background:new;}
	.st8{fill:#A0616A;}
</style>
<path class="st0" d="M215.1,291.4c-1.8,0-3.3,1.5-3.3,3.3v26.2c0,1.8,1.5,3.3,3.3,3.3s3.3-1.5,3.3-3.3v-26.2
	C218.4,292.9,216.9,291.4,215.1,291.4z"/>
<path class="st1" d="M587.5,0H293c-33.4,0-60.5,27.1-60.5,60.5v520.4c0,33.4,27.1,60.5,60.5,60.5h294.5c33.4,0,60.5-27.1,60.5-60.5
	V60.5C648,27.1,620.9,0,587.5,0z"/>
<path class="st0" d="M587.5,645.8H293c-34.1,0-61.9-27.8-61.9-61.9V63.5c0-34.1,27.8-61.9,61.9-61.9h294.5
	c34.1,0,61.9,27.8,61.9,61.9v520.4C649.4,618,621.7,645.8,587.5,645.8L587.5,645.8z M293,4.4c-32.6,0-59,26.5-59,59v520.4
	c0,32.6,26.5,59,59,59h294.5c32.6,0,59-26.5,59-59V63.5c0-32.6-26.5-59-59-59C587.5,4.4,293,4.4,293,4.4z"/>
<path class="st2" d="M608.9,126.8H490.5c-5,0-9.1-4.1-9.1-9.1s4.1-9.1,9.1-9.1h118.4c5,0,9.1,4.1,9.1,9.1S613.9,126.8,608.9,126.8z"
	/>
<path class="st3" d="M497.8,198.4H382.8c-2.9,0-5.3-2.4-5.3-5.3s2.4-5.3,5.3-5.3h115.1c2.9,0,5.3,2.4,5.3,5.3
	C503.1,196,500.7,198.4,497.8,198.4L497.8,198.4z"/>
<path class="st2" d="M269.4,22.6h66c0.2,0,0.3,0.1,0.3,0.3v7.9c0,0.2-0.1,0.3-0.3,0.3h-66c-0.2,0-0.3-0.1-0.3-0.3v-7.9
	C269.1,22.7,269.2,22.6,269.4,22.6z"/>
<circle class="st2" cx="556.5" cy="24.3" r="6.8"/>
<circle class="st2" cx="575.2" cy="24.3" r="6.8"/>
<circle class="st2" cx="594" cy="24.3" r="6.8"/>
<path class="st0" d="M292.3,226.6c0,0.9,0.8,1.7,1.7,1.7h292.5c0.9,0,1.7-0.8,1.7-1.7c0-0.9-0.8-1.7-1.7-1.7H294
	C293.1,224.9,292.3,225.6,292.3,226.6z"/>
<path class="st0" d="M524.3,467.6c0,0.9,0.8,1.7,1.7,1.7h292.5c0.9,0,1.7-0.8,1.7-1.7c0-0.9-0.8-1.7-1.7-1.7H526
	C525.1,465.9,524.3,466.6,524.3,467.6L524.3,467.6z"/>
<path class="st3" d="M558.5,360.5H383c-2.9,0-5.3-2.4-5.3-5.3c0-2.9,2.4-5.3,5.3-5.3h175.5c2.9,0,5.3,2.4,5.3,5.3
	S561.4,360.5,558.5,360.5L558.5,360.5z"/>
<circle class="st3" cx="329.7" cy="354.6" r="12.9"/>
<path class="st0" d="M328.3,376.1v-2.9c10.7,0,19.3-8.7,19.3-19.3s-8.7-19.3-19.3-19.3v-2.9c12.2,0,22.2,10,22.2,22.2
	S340.5,376.1,328.3,376.1z"/>
<path id="uuid-9e40be56-d004-4de8-84cd-e8041855938b-386" class="st4" d="M174.8,302.6c5.3-5.3,12.3-7,15.7-3.6s1.9,10.4-3.4,15.7
	c-2.1,2.2-4.6,3.8-7.5,4.8l-22.6,22.4l-10.3-10.8l23.3-20.9C171.1,307.3,172.7,304.7,174.8,302.6L174.8,302.6z"/>
<path class="st5" d="M102.6,284.1l23.7,52.5l37.8-20.4l13.5,7.2c0,0-30.9,51.6-52,45.7s-58.7-59.2-51.9-75.6
	C80.4,277,102.6,284.1,102.6,284.1L102.6,284.1z"/>
<path class="st0" d="M0,644c0,0.7,0.5,1.2,1.2,1.2h729.3c0.7,0,1.2-0.5,1.2-1.2c0-0.7-0.5-1.2-1.2-1.2H1.2C0.5,642.8,0,643.4,0,644z
	"/>
<ellipse class="st3" cx="218.3" cy="323.9" rx="64.9" ry="63.5"/>
<g>
	<polygon class="st4" points="92.3,633.8 109.5,633.8 117.7,567.3 92.3,567.3 	"/>
	<path class="st6" d="M151.4,633.5L151.4,633.5c0.5,0.9,0.8,3.8,0.8,4.9l0,0c0,3.2-2.6,5.9-5.9,5.9H92.9c-2.2,0-4-1.8-4-4V638
		c0,0-2.6-6.7,2.8-14.9c0,0,6.8,6.5,16.9-3.7l3-5.4l21.6,15.8l12,1.5C147.7,631.6,150,631.2,151.4,633.5L151.4,633.5z"/>
</g>
<polygon class="st4" points="105.3,287.5 105.7,264.2 91.3,255.3 75.7,274.4 "/>
<polygon class="st7" points="105.3,287.5 106.2,264.8 91.3,255.3 96.4,283.4 "/>
<path class="st6" d="M140.2,441.3L116.4,603H86.6l4-92.3l2.1-48.5l-6.1-23.1c0,0-2.8-5.1-5.1-11.4c-2.6-7-4.7-15.4-1.6-19.4
	c1.1-1.5,4.1-2.6,8.1-3.4c2.4-0.5,5.3-0.9,8.3-1.2c17.6-1.7,42.7-0.7,42.7-0.7l0.6,21l0.4,11.7L140.2,441.3L140.2,441.3z"/>
<g>
	<polygon class="st4" points="61.9,625.9 78.9,628.4 96.7,563.8 71.6,560.1 	"/>
	<path class="st6" d="M120.4,634.1L120.4,634.1c0.4,1,0.3,3.9,0.1,4.9l0,0c-0.5,3.2-3.4,5.4-6.6,4.9L61,636.3
		c-2.2-0.3-3.7-2.3-3.4-4.5l0.3-2.2c0,0-1.6-7,4.9-14.4c0,0,5.8,7.4,17.2-1.2l3.7-4.9l19,18.7l11.6,3.2
		C117,631.7,119.4,631.7,120.4,634.1L120.4,634.1L120.4,634.1z"/>
</g>
<path class="st6" d="M140.5,414.4l-3.3,28.1l-17.8,59.2L90.2,599l-29.5-4.3l26.5-138.5l-2.6-23.7c0,0-0.9-2.4-1.8-5.8
	c-1.9-6.8-4.4-18-1.7-23.6c0.4-0.8,0.8-1.4,1.4-2c1.1-1,3.2-1.6,6.1-2c12-1.4,36.7,2.5,47.7,4.4L140.5,414.4L140.5,414.4z"/>
<path class="st5" d="M79,269.5l29,13.9c0,0,30.7,91,30.7,95.6s8.7,7.5,3.5,12.8s9.7,9.6,1.7,13.8c-8,4.2-58.2,27-63.8,24.9
	c-15.4-5.7,0.7-26.5,0.7-26.5s-11.6-9.3-9.8-13.9c1.7-4.6-10.4-93.3-10.4-93.3S79,269.5,79,269.5z"/>
<path id="uuid-73aedec7-8a7b-498d-9bbc-62d5085a8040-387" class="st4" d="M167.3,349.6c7.2-2.1,14.1-0.1,15.5,4.4s-3.4,10-10.6,12.1
	c-2.9,0.9-5.9,1.1-8.8,0.6l-30.6,8.6L129,361l30.6-7C161.8,351.9,164.4,350.5,167.3,349.6L167.3,349.6z"/>
<path class="st5" d="M113.2,298.5l-4.8,57.4l42.9,0.5l8.3,12.8c0,0-52.1,30.1-67.7,14.7s-22.6-80.2-8.7-91.3
	S113.2,298.5,113.2,298.5L113.2,298.5z"/>
<g>
	<circle class="st4" cx="104.7" cy="246.2" r="24.8"/>
	<path class="st6" d="M91.3,246.3c0,0,3.9-6.5,6.1-9.8s2.2-8.2,2.2-8.2s19.9-0.4,26.6,5.3s11.3-15.2,4.9-22.5c0,0-2.7,3.1-2.2,4.3
		l0.6,1.2c0,0-3.3-13.3-12.9-15.8c0,0-5.3,2.8-3.8,4.3s-11.4-9.4-15.3-2.9c0,0-9.6-0.2-8.4,3.3l-0.6,2.2c0,0-8.2-2.5-8.8,3.5
		c0,0,2.9,0,4.5,1.6c1.6,1.6-5.7,6.1-5.7,6.1s-8.4,23.1,2.9,32.5c0,0,0.1-11.2,4.6-8.5S91.3,246.3,91.3,246.3z"/>
	<g>
		<polygon class="st6" points="114.9,260.9 114.1,263.3 120.7,263.5 121.2,261.3 		"/>
		<path class="st6" d="M121.6,252.5c0,0-10-2.7-16,5.5l-1.3,1.6c0,0-12.7-14.3-11.6-19.5l-2.7,0.2l-2.7,13.7c0,0,8.5,14.7,20.3,15.2
			c0,0,11.4,2.7,13.8-2s6.7-11.6,6.7-11.6L121.6,252.5z M119.8,265.6h-6.6c-1.6,0-5.6-5.7-5.6-5.7c2.2-3.5,8.9-3.7,8.9-3.7h7.3
			l0.5,2.2L119.8,265.6L119.8,265.6z"/>
	</g>
</g>
<g>
	<polygon class="st8" points="605.6,635.7 594.7,633.4 598.6,590.2 614.7,593.7 	"/>
	<path class="st6" d="M568.3,627.4L568.3,627.4c-0.5,0.5-1,2.3-1.2,3l0,0c-0.4,2,0.9,4.1,2.9,4.5l33.8,7.3c1.4,0.3,2.8-0.6,3.1-2
		l0.3-1.4c0,0,2.6-3.9,0.3-9.8c0,0-5.2,3.2-10.2-4.6l-1.1-3.8l-15.8,7l-7.8-0.7C570.9,626.7,569.5,626.2,568.3,627.4L568.3,627.4
		L568.3,627.4z"/>
</g>
<g>
	<polygon class="st8" points="586.1,632.4 577,626 597.6,587.8 611,597.4 	"/>
	<path class="st6" d="M555.1,610.1L555.1,610.1c-0.6,0.3-1.9,1.7-2.3,2.3l0,0c-1.2,1.7-0.8,4.1,0.9,5.3l28.2,20
		c1.2,0.8,2.8,0.6,3.6-0.6l0.8-1.2c0,0,3.9-2.5,4.1-8.9c0,0-6,0.9-7.5-8.2l0.4-4l-17.3,0.2l-6.9-3.7
		C557.7,610.5,556.6,609.4,555.1,610.1L555.1,610.1z"/>
</g>
<path class="st6" d="M717.1,419c0,0,17,23.1-17,49l-69.3-22.1l24.7-51.6l21.9-12L717.1,419L717.1,419z"/>
<polyline class="st6" points="630.9,445.9 604.1,498.2 587.1,607 608.3,608.4 629.5,505.2 666.9,449.4 640.8,437.4 "/>
<path class="st6" d="M700.2,451.6V468l-48.1,52.8c0,0,0,39.6-18.4,57.9l-21.2,32.5l-18.4-9.9l26.9-94.7l48.1-62.2L700.2,451.6z"/>
<path class="st8" d="M666,288.7l7.3,34.5l27.8-6.8c0,0-13.7-28.6-11-39.9L666,288.7z"/>
<path class="st7" d="M666,288.7l7.3,34.5l27.8-6.8c0,0-13.7-28.6-11-39.9L666,288.7z"/>
<path class="st5" d="M692.4,293.9l-21.2,9.9c0,0-10.9,6.7-11.1,11.1c-0.2,4.4,1.2,25.6,1.2,25.6s-8.5,8.5-2.8,25.4l-2.8,28.3
	l63.6,33.9l-5.7-59.4l2.8-55.1L692.4,293.9L692.4,293.9z"/>
<path id="uuid-8e851e4b-a66f-4616-8a31-24a5e3f3093d-388" class="st8" d="M711.4,454.8c-2.5,5.7-7.4,9-11.1,7.5
	c-3.6-1.6-4.5-7.5-2.1-13.2c1-2.3,2.5-4.3,4.4-5.9l10.8-24l11.2,5.3l-11.9,23.1C712.9,450,712.4,452.5,711.4,454.8L711.4,454.8z"/>
<path class="st5" d="M700.2,317.3c0,0,15.5-9.9,21.2,1.4c5.7,11.3,18.4,69.3,18.4,69.3L721.4,443l-17-7.1l14.8-59.3L700.2,317.3
	L700.2,317.3z"/>
<path id="uuid-35301953-803a-439b-9845-5bf97a98fdf5-389" class="st8" d="M620.5,445.9c-4.4,4.4-10.2,5.7-13,2.9s-1.5-8.6,2.9-13
	c1.7-1.8,3.9-3.1,6.2-3.9l18.9-18.3l8.4,9.1l-19.5,17.1C623.6,442,622.3,444.1,620.5,445.9L620.5,445.9z"/>
<path class="st5" d="M660.7,313.9c0,0,27.1-1.1,28.2,11.5c1.1,12.6-17.4,68.8-17.4,68.8L634,438.6l-13.2-12.8l35.6-49.7L660.7,313.9
	L660.7,313.9z"/>
<g>
	<path class="st3" d="M738.9,463.1l-173.3-28c-2.9-0.5-4.8-3.2-4.4-6s3.2-4.8,6-4.4l173.3,28c2.9,0.5,4.8,3.2,4.4,6
		S741.8,463.6,738.9,463.1z"/>

		<ellipse transform="matrix(0.1602 -0.9871 0.9871 0.1602 16.2428 860.8113)" class="st3" cx="514" cy="420.9" rx="12.9" ry="12.9"/>
	<path class="st0" d="M509.2,441.8l0.5-2.8c10.5,1.7,20.5-5.5,22.2-16c1.7-10.5-5.5-20.5-16-22.2l0.5-2.8
		c12.1,1.9,20.3,13.4,18.4,25.4C532.7,435.5,521.3,443.8,509.2,441.8L509.2,441.8z"/>
</g>
<g>
	<circle class="st8" cx="668.8" cy="274.7" r="21.3"/>
	<path class="st6" d="M681.4,274.7c0,0-13.3-12.1-21.9-7.8s-12.8,7.1-12.8,7.1s-7.1-10.7,3.6-19.9c0,0-21.7-9.5-5.9-24.3
		c15.8-14.8,30.1-9.1,30.1-9.1s19.2,8.5,5.7,25.6c0,0,19.7,12.5,9.5,32.9c0,0-1-13-3.8-9.4S681.4,274.7,681.4,274.7L681.4,274.7z"/>
</g>
<path class="st1" d="M240.6,347.9c-8.2-20.1-16.3-40.1-24.5-60.2c-1.1-2.8-4.7-2.9-5.8,0c-8.1,21-13.3,43-15.9,65.4
	c-0.4,3.8,5.5,3.8,6,0c1-8.8,2.5-17.4,4.4-26c6.7,0.4,13.5-0.4,20-2.2c3.3,8.2,6.7,16.4,10,24.7C236.3,353,242.1,351.4,240.6,347.9z
	 M206.2,321.1c2-8.2,4.4-16.4,7.2-24.4l9.2,22.5C217.2,320.6,211.7,321.3,206.2,321.1L206.2,321.1z"/>
<ellipse transform="matrix(0.1602 -0.9871 0.9871 0.1602 -130.6647 540.1913)" class="st1" cx="252.1" cy="346.9" rx="6" ry="6"/>
<circle class="st1" cx="189.1" cy="293.9" r="6"/>
</svg>
