<svg xmlns="http://www.w3.org/2000/svg" viewBox="0 0 528 263.9">
<style type="text/css">
	.st0{fill:#F2F2F2;}
	.st1{fill:#E6E6E6;}
	.st2{fill:#2F2E41;}
	.st3{fill:#FFB6B6;}
	.st4{fill:#E74F9A;}
</style>
<g>
	<path class="st0" d="M147.4,144.2c-0.8-1.4-4.5,0.1-5.2-1.2c-0.7-1.3,2.7-3.2,4.7-7.7c0.3-0.8,2.6-5.9,0.9-7.5
		c-3.1-3-17.2,9.3-22.2,5.3c-1.1-0.9-1.8-2.6-5.1-5.5c-1.3-1.1-2.1-1.7-2.9-1.5c-1.1,0.3-1.2,1.7-2.3,4.6c-1.7,4.3-2.8,4-3.8,7.4
		c-0.8,2.5-0.6,4-1.5,4.3c-1.3,0.4-2.4-2.3-4-2c-1.6,0.2-2.6,3.4-2.9,5.7c-0.6,4.4,1,7.3,1.9,10.4c1,3.3,1.6,8.4-0.7,15.5L82,234.8
		c4.9-12.9,19.2-48.2,25.1-61.3c1.7-3.8,3.6-7.6,7.6-9.1c3.8-1.5,8.9-0.6,15.6-2.2c0.8-0.2,2.9-0.7,3.2-2c0.2-1-1-1.6-0.8-2.6
		c0.3-1.3,2.7-1.3,5.8-2.8c2.1-1.1,3.5-2.3,4.6-3.4C143.4,151,148.6,146.1,147.4,144.2L147.4,144.2z"/>
	<path class="st0" d="M59.8,177.3c-0.9,0-1.2,2.2-2.1,2.2c-0.8,0-0.8-2.3-2.4-4.5c-0.3-0.4-2.2-3-3.4-2.6
		c-2.4,0.7-0.4,11.1-3.8,12.4c-0.7,0.3-1.8,0.1-4.2,0.9c-0.9,0.3-1.4,0.6-1.5,1c-0.2,0.6,0.5,1.1,1.6,2.5c1.6,2.1,1.2,2.5,2.6,4
		c1,1.1,1.8,1.4,1.7,2c-0.2,0.7-1.8,0.5-2.2,1.4c-0.3,0.9,0.9,2.3,2,3.1c2,1.6,3.9,1.6,5.6,2c1.9,0.5,4.6,1.7,7.4,4.8l24.4,29
		c-4.9-6.1-18.1-23.3-22.8-30c-1.4-1.9-2.7-4-2.3-6.3s2.3-4.6,3.4-8.3c0.1-0.4,0.5-1.6-0.1-2.1c-0.4-0.4-1.1,0-1.5-0.3
		c-0.6-0.5,0.1-1.7,0.3-3.7c0.1-1.4-0.1-2.4-0.3-3.3C62,181.2,61,177.2,59.8,177.3L59.8,177.3L59.8,177.3z"/>
	<path class="st0" d="M78.6,181.5l-0.6-5.1l0.3-0.4c1.2-1.8,1.8-3.5,1.8-5.2c0-0.3,0-0.5,0-0.8c0-1.1-0.1-2.4,0.6-3.9
		c0.4-0.9,1.5-2.8,3.1-2.6c0.4,0.1,0.8,0.3,1,0.5c0-0.1,0.1-0.1,0.1-0.2c0.5-0.8,0.9-1.1,1.3-1.4c0.3-0.2,0.6-0.5,1.1-1.1
		c0.2-0.3,0.4-0.5,0.5-0.7c0.4-0.6,1-1.3,1.9-1.3c1,0,1.6,0.9,1.9,1.5c0.6,1,0.9,1.7,1.1,2.2c0.1,0.2,0.1,0.4,0.2,0.4
		c0.3,0.5,3,0,4.1-0.1c2.3-0.4,4.3-0.7,5.1,0.7c0.6,1,0.2,2.4-1.3,4.2c-0.5,0.6-1,1-1.4,1.3c0.4,0.2,0.7,0.5,0.8,1.1l0,0
		c0.3,1.2-0.7,2.5-3.1,3.7c-0.6,0.3-1.4,0.7-2.5,0.9c-0.5,0.1-1,0.1-1.4,0.1c0,0.2-0.1,0.5-0.2,0.8c-0.4,0.8-1.3,1.1-2.6,1
		c-1.4-0.1-2.6-0.4-3.7-0.6c-0.9-0.2-1.7-0.4-2.3-0.3c-1.2,0.1-2,1-3.1,2.2L78.6,181.5L78.6,181.5L78.6,181.5z"/>
	<path class="st0" d="M81.2,151.3l-4.8,1.8L76,153c-2-0.7-3.9-0.9-5.5-0.5c-0.3,0.1-0.5,0.1-0.8,0.2c-1,0.3-2.3,0.7-3.9,0.4
		c-0.9-0.2-3.1-0.7-3.3-2.3c-0.1-0.4,0.1-0.8,0.2-1.1c-0.1,0-0.1,0-0.2-0.1c-0.9-0.3-1.3-0.6-1.7-0.9c-0.3-0.2-0.6-0.5-1.3-0.8
		c-0.3-0.1-0.6-0.2-0.8-0.3c-0.7-0.3-1.5-0.6-1.7-1.5c-0.2-1,0.5-1.8,0.9-2.2c0.8-0.9,1.4-1.3,1.9-1.6c0.2-0.1,0.3-0.2,0.4-0.3
		c0.4-0.4-0.7-2.9-1.2-3.9c-0.9-2.1-1.8-4-0.6-5.1c0.9-0.8,2.3-0.8,4.4,0.2c0.6,0.3,1.2,0.7,1.6,1c0.1-0.4,0.4-0.8,0.8-1.1l0,0
		c1.1-0.6,2.6,0.1,4.3,2.1c0.4,0.5,1,1.2,1.5,2.2c0.2,0.5,0.4,0.9,0.5,1.3c0.2-0.1,0.5-0.1,0.8,0c0.9,0.2,1.4,1,1.7,2.3
		c0.3,1.4,0.3,2.6,0.4,3.7c0,0.9,0.1,1.8,0.3,2.3c0.4,1.1,1.5,1.7,2.9,2.4L81.2,151.3L81.2,151.3z"/>
	<path class="st0" d="M78.6,136.4l-0.6-5.1l0.3-0.4c1.2-1.8,1.8-3.5,1.8-5.2c0-0.3,0-0.5,0-0.8c0-1.1-0.1-2.4,0.6-3.9
		c0.4-0.9,1.5-2.8,3.1-2.6c0.4,0.1,0.8,0.3,1,0.5c0-0.1,0.1-0.1,0.1-0.2c0.5-0.8,0.9-1.1,1.3-1.4c0.3-0.2,0.6-0.5,1.1-1.1
		c0.2-0.3,0.4-0.5,0.5-0.7c0.4-0.6,1-1.3,1.9-1.3c1,0,1.6,0.9,1.9,1.5c0.6,1,0.9,1.7,1.1,2.2c0.1,0.2,0.1,0.4,0.2,0.4
		c0.3,0.5,3,0,4.1-0.1c2.3-0.4,4.3-0.7,5.1,0.7c0.6,1,0.2,2.4-1.3,4.2c-0.5,0.6-1,1-1.4,1.3c0.4,0.2,0.7,0.5,0.8,1.1l0,0
		c0.3,1.2-0.7,2.5-3.1,3.7c-0.6,0.3-1.4,0.7-2.5,0.9c-0.5,0.1-1,0.1-1.4,0.1c0,0.2-0.1,0.5-0.2,0.8c-0.4,0.8-1.3,1.1-2.6,1
		c-1.4-0.1-2.6-0.4-3.7-0.6c-0.9-0.2-1.7-0.4-2.3-0.3c-1.2,0.1-2,1-3.1,2.2L78.6,136.4L78.6,136.4L78.6,136.4z"/>
	<path class="st0" d="M83.8,234.7l-1.1-0.7l-0.3-1.2l0.3,1.2l-1.2,0.1c0-0.1-0.1-0.4-0.2-0.8c-0.6-2.3-2.2-9.2-3.7-20
		c-1-7.6-1.5-15.4-1.7-23.2c-0.1-7.8,0.3-13.7,0.6-18.5c0.2-3.6,0.5-7,0.8-10.3c0.7-8.9,1.4-17.3,0.9-26.5c-0.1-2.1-0.3-6.4-2.9-11
		c-1.5-2.7-3.5-5-6-7l1.6-2c2.8,2.2,5,4.8,6.6,7.8c2.8,5.1,3,9.8,3.2,12.1c0.5,9.4-0.2,17.9-0.9,26.9c-0.3,3.3-0.5,6.7-0.8,10.3
		c-0.3,4.7-0.7,10.6-0.5,18.3c0.1,7.7,0.7,15.4,1.6,22.9c1.4,10.7,3.1,17.5,3.6,19.7C84,234,84.1,234.3,83.8,234.7L83.8,234.7
		L83.8,234.7z"/>
	<path class="st0" d="M64.7,120.9c-0.1,0-0.2,0-0.3,0c-2.1-0.1-4.1-1.4-5.9-3.8c-0.8-1.1-1.3-2.4-2.1-5c-0.1-0.4-0.8-2.4-1.2-5.2
		c-0.3-1.8-0.2-2.6,0.1-3.2c0.4-0.7,1-1.3,1.8-1.6c0-0.2,0-0.5,0.1-0.7c0.4-1,1.6-0.9,2.2-0.8c0.3,0,0.7,0.1,1.1,0.1
		c0.7,0,1-0.2,1.5-0.5s1.2-0.6,2.1-0.8c1.9-0.4,3.4,0.1,3.9,0.3c2.7,0.9,4,3,5.6,5.4c0.3,0.5,1.4,2.3,2.1,4.7
		c0.5,1.8,0.4,2.5,0.3,3.1c-0.3,1.2-1,1.9-2.9,3.4c-1.9,1.6-2.9,2.4-3.7,2.9C67.6,120.2,66.3,120.9,64.7,120.9L64.7,120.9z"/>
</g>
<path class="st1" d="M528,233.8L528,233.8c0,0.5-0.4,0.8-0.7,0.8H0V233h527.3C527.7,233,528,233.4,528,233.8z"/>
<g>
	<path class="st2" d="M245.6,14L245.6,14c28.6,0,51.8,23.2,51.8,51.8v17h-51.8V14L245.6,14L245.6,14z"/>
	<circle class="st3" cx="265.8" cy="36.1" r="25.9"/>
	<path class="st2" d="M283.1,168.3l-24-13.9c0,0-32.8-32.9-33.8-17.4s-20.8,69.9,24.5,78.4c45.3,8.4,73.7-8,73.7-8l-13.3-25.2
		L283.1,168.3L283.1,168.3z"/>
	<g>
		<polygon class="st3" points="197,117.1 183.5,140.8 198.1,199.3 209.2,195.7 210.3,142.7 217.1,129 			"/>
		<path class="st4" d="M262.6,86.1c0,0-20.2-11.9-29.6-6.8S192.9,122,192.9,122l26.5,18.3L262.6,86.1z"/>
	</g>
	<polygon class="st3" points="251.6,216.3 212.6,213.2 210.9,234.9 255.3,234.3 		"/>
	<path class="st4" d="M280,62.9l-26.5,3.2l-3.8,13.3l-18.9,6.3l10.7,68.2c0,0,30.3,4.4,41.7,20.2s31.6,18.3,31.6,18.3v-50.1
		l-1.3-66.7L287,71.2L280,62.9L280,62.9z"/>
	<path class="st2" d="M306.5,192.9c0,0,44.2-3.8,53,5s12,25.2,1.3,32.8s-39.8,5.7-39.8,5.7l-5.7-31.6L306.5,192.9z"/>
	<polygon class="st2" points="327.3,201.8 246.5,213.8 245.7,236.7 321,236.5 		"/>
	<polygon class="st3" points="336.2,135.5 332.1,157.9 289.8,203.4 282.5,194.2 310.9,149.4 312.8,134.2 		"/>
	<path class="st2" d="M239.4,218.2c0,0-15.7,1.5-17.2,5.5s0.5,12,0.5,12l-49.4-5.9c-3.6-0.4-5.7-4.2-4.2-7.5
		c3.2-6.8,10.6-16.2,26.8-14.5c25,2.6,36.6-2.3,36.6-2.3l13.2,9.9L239.4,218.2L239.4,218.2z"/>
	<path class="st4" d="M298.6,73.3c0,0,23.4,1.3,28.4,10.7s9.8,57.8,9.8,57.8l-32.2,0.6L298.6,73.3L298.6,73.3z"/>
	<polygon class="st3" points="244.3,182.5 251.3,221 272.7,217.1 260.7,174.3 		"/>
	<path class="st2" d="M275.6,211.9l-29,0.6l1.9,32.8c0,0-0.6,18.3,15.1,18.3s22.1,1.3,22.1-1.9s-3.2-21.7-3.2-21.7l-6.9-19.9V211.9
		L275.6,211.9z"/>
	<path class="st2" d="M263.6,185.4l-24,5c-15.7-34.5-25.3-67.7-26.5-99.1c0,0-2.5-19.6,17-20.2s22.1,28.4,22.1,28.4L263.6,185.4
		L263.6,185.4z"/>

		<ellipse transform="matrix(0.7365 -0.6764 0.6764 0.7365 -65.1224 243.6966)" class="st3" cx="280.3" cy="205.4" rx="15.1" ry="9.3"/>

		<ellipse transform="matrix(0.9906 -0.1365 0.1365 0.9906 -25.8735 29.9174)" class="st3" cx="205.2" cy="203.6" rx="9.3" ry="15.1"/>
	<path class="st2" d="M315.3,57c-1.3-4-3.9-7.5-5.1-11.6c-1.5-5.4-4.8,6.6-5.2,1c-0.6-10.6-16.8-37.9-26.1-43.2
		c-9.3-5.2-14.6-3.7-24,1.3c0,0-4.6,0.3-10.3,3.1c-5.7,2.8-10.8,7.3-13,13.3c-1.8,4.7-1.6,9.9-2.1,14.9
		c-1.6,13.9-9.4,27.2-7.8,41.1c0.5,4.3,2.2,8.8,5.7,11.4c3.6,2.6,9.3,2.3,11.6-1.4c0.8-1.3,1.1-2.8,1.8-4.1
		c0.7-1.3,1.9-2.6,3.4-2.5c2.2,0.1,3.4,3.1,2.5,5.1s-3,3.3-4.9,4.4c4.6,2.1,10.4,1.4,14.5-1.6c4.1-3.1,6.3-8.4,5.5-13.5
		c-1.1-7.1-11.4-5.6-12.6-12.7c-0.9-5.2-4-13.8-3.2-18.9c0.8-5.2,4.9,1.1,0.6-1.9c4.7,2.3,14.8-13.3,19.8-15.1
		c4.9-1.7,9.1-5.5,11.4-10.3c5.2,7.6,9.9,5.5,11.7,14.6s0.1,29.6-7.6,34.7c3.1,2.1,5.6,5.1,7,8.6c0.8,2,1.4,4.1,2.7,5.7
		c2.6,3.1,7.4,3.3,11.3,2c4.8-1.6,8.8-5.2,11.1-9.7S316.9,61.8,315.3,57L315.3,57z"/>
</g>
</svg>
