<svg xmlns="http://www.w3.org/2000/svg" viewBox="0 0 42.6 6.8" fill='#EC69B0' aria-label="POINT 03">
	<path d="M0,0.1C0.4,0,0.9,0,1.4,0c0.7,0,1.1,0.1,1.5,0.4c0.3,0.3,0.5,0.7,0.5,1.2c0,0.5-0.2,1-0.5,1.3
		C2.5,3.2,2,3.3,1.4,3.3c-0.3,0-0.7,0-1-0.1v3.5H0C0,6.8,0,0.1,0,0.1z M0.4,2.9C0.7,3,1,3,1.4,3c0.5,0,1-0.1,1.2-0.3
		c0.3-0.2,0.4-0.6,0.4-1c0-0.4-0.1-0.8-0.4-1S1.9,0.3,1.4,0.3c-0.3,0-0.7,0-1,0.1L0.4,2.9L0.4,2.9z"/>
	<path d="M10,4.8C9.5,5.3,8.9,5.5,8.1,5.5S6.7,5.3,6.2,4.8s-0.7-1.2-0.7-2s0.2-1.5,0.7-2S7.3,0,8.1,0S9.5,0.2,10,0.8
		s0.7,1.2,0.7,2S10.5,4.3,10,4.8z M6.5,4.6c0.4,0.4,1,0.7,1.6,0.7S9.3,5,9.7,4.6c0.4-0.4,0.6-1,0.6-1.8S10.1,1.4,9.7,1
		c-0.4-0.4-1-0.7-1.6-0.7S6.9,0.5,6.5,1C6.1,1.4,5.9,2,5.9,2.8S6.1,4.1,6.5,4.6z"/>
	<path d="M13.4,6.8V0.1h0.4v6.7H13.4z" />
	<path d="M16.8,6.8V0.1h0.4l3.1,4.8h0V0.1h0.4v5.4h-0.4l-3.1-4.8h0v6.1L16.8,6.8L16.8,6.8z" />
	<path d="M23.3,0.1h3.9v0.3h-1.8v6.4h-0.4V0.4h-1.8C23.4,0.4,23.4,0.1,23.3,0.1z" />
	<path d="M33.1,2.8C33.1,0.9,33.7,0,35,0s1.9,0.9,1.9,2.8S36.3,5.5,35,5.5C33.8,5.5,33.1,4.6,33.1,2.8z M33.5,2.8
		c0,1.6,0.5,2.5,1.5,2.5s1.5-0.8,1.5-2.5S36,0.3,35,0.3S33.5,1.1,33.5,2.8z"/>
	<path d="M39.4,0.1h3.2v0.3l-2,1.9v0h0.3c0.6,0,1,0.1,1.3,0.4c0.3,0.2,0.4,0.6,0.4,1.1c0,0.6-0.2,1-0.5,1.3
		s-0.8,0.4-1.4,0.4c-0.5,0-1-0.1-1.4-0.4l0.1-0.3c0.4,0.2,0.8,0.4,1.2,0.4c1,0,1.5-0.5,1.5-1.4c0-0.4-0.1-0.7-0.4-0.9
		c-0.2-0.2-0.7-0.3-1.2-0.3h-0.6V2.4l2-1.9v0h-2.7C39.4,0.4,39.4,0.1,39.4,0.1z"/>
</svg>
